<?xml version="1.0" encoding="utf-8"?>
<!-- Generator: Adobe Illustrator 16.0.0, SVG Export Plug-In . SVG Version: 6.00 Build 0)  -->
<!DOCTYPE svg PUBLIC "-//W3C//DTD SVG 1.1//EN" "http://www.w3.org/Graphics/SVG/1.1/DTD/svg11.dtd">
<svg version="1.1" id="Layer_1" xmlns="http://www.w3.org/2000/svg" xmlns:xlink="http://www.w3.org/1999/xlink" x="0px" y="0px"
	 width="100px" height="100px" viewBox="0 0 100 100" enable-background="new 0 0 100 100" xml:space="preserve">
<g>
	<g>
		<path fill-rule="evenodd" clip-rule="evenodd" fill="#EC1C24" d="M79.389,51.012v40.393c-9.26-3.134-18.39-6.709-27.354-10.85
			v-13.21c2.957,0.426,5.914,0.695,8.871,0.833V51.012H79.389L79.389,51.012z"/>
		<path fill-rule="evenodd" clip-rule="evenodd" fill="#0094D9" d="M79.389,48.99V8.596c-9.26,3.131-18.39,6.707-27.354,10.849
			v13.208c2.957-0.423,5.914-0.694,8.871-0.831V48.99H79.389L79.389,48.99z"/>
	</g>
	<g>
		<path fill-rule="evenodd" clip-rule="evenodd" fill="#EC1C24" d="M22.646,51.012h18.482v17.166
			c2.958-0.138,5.915-0.407,8.872-0.833v13.21c-8.965,4.141-18.096,7.716-27.354,10.85V51.012L22.646,51.012z"/>
		<path fill-rule="evenodd" clip-rule="evenodd" fill="#0094D9" d="M22.646,48.99h18.482V31.823
			c2.958,0.137,5.915,0.408,8.872,0.831V19.445c-8.965-4.142-18.096-7.717-27.354-10.849V48.99L22.646,48.99z"/>
	</g>
</g>
</svg>
