<?xml version="1.0" encoding="utf-8"?>
<!-- Generator: Adobe Illustrator 14.0.0, SVG Export Plug-In . SVG Version: 6.00 Build 43363)  -->
<!DOCTYPE svg PUBLIC "-//W3C//DTD SVG 1.1//EN" "http://www.w3.org/Graphics/SVG/1.1/DTD/svg11.dtd">
<svg version="1.1" id="Layer_1" xmlns="http://www.w3.org/2000/svg" xmlns:xlink="http://www.w3.org/1999/xlink" x="0px" y="0px"
	 width="100px" height="100px" viewBox="0 0 100 100" enable-background="new 0 0 100 100" xml:space="preserve">
<g>
	<linearGradient id="SVGID_1_" gradientUnits="userSpaceOnUse" x1="47.7739" y1="23.7104" x2="89.4932" y2="23.7104">
		<stop  offset="0" style="stop-color:#00AE4C"/>
		<stop  offset="1" style="stop-color:#72BE44"/>
	</linearGradient>
	<path fill-rule="evenodd" clip-rule="evenodd" fill="url(#SVGID_1_)" d="M87.413,36.005c-6.127,2.033-11.705,3.89-16.807,5.588
		c-0.027-2.758-0.096-5.605-0.117-8.576c-0.027-3.092-0.107-6.283-0.107-9.637c-4.062-1.391-7.945-2.783-11.77-4.116
		c-3.722-1.3-7.31-2.591-10.838-3.832c4.266-2.912,8.944-6.098,14.079-9.605c4.305,1.244,8.691,2.617,13.141,3.955
		c4.717,1.417,9.598,2.764,14.5,4.29"/>
	<g>
		<path fill="#231F20" d="M22.053,46.887l-5.919-3.073c-1.907-0.988-3.791-1.967-5.628-2.944c-1.509,1.027-2.94,2.009-4.304,2.936
			c1.682,0.921,3.387,1.85,5.115,2.794l5.343,2.903l1.761,4.59l1.666,4.296l5.281-1.758c-0.53-1.523-1.062-3.094-1.603-4.696
			L22.053,46.887z"/>
		<path fill="#231F20" d="M35.786,40.217c-2.52-1.177-4.996-2.32-7.435-3.458c-2.368-1.109-4.705-2.215-7.007-3.286
			c-2.098,1.429-4.071,2.778-5.932,4.049c2.036,1.023,4.108,2.057,6.237,3.107c2.148,1.062,4.337,2.158,6.597,3.252
			c0.53,1.919,1.089,3.775,1.62,5.584c0.513,1.771,1.023,3.492,1.526,5.164c2.281-0.756,4.688-1.559,7.25-2.407
			c-0.437-1.871-0.907-3.782-1.376-5.747C36.786,44.446,36.299,42.358,35.786,40.217z"/>
		<path fill="#231F20" d="M56.991,38.486c-0.279-2.622-0.547-5.358-0.799-8.194c-3.403-1.319-6.714-2.625-9.909-3.899
			c-3.137-1.251-6.223-2.45-9.196-3.66c-3.135,2.137-6.052,4.125-8.757,5.972c2.586,1.143,5.264,2.286,7.953,3.47
			c2.75,1.208,5.611,2.418,8.491,3.673c0.43,2.434,0.821,4.806,1.235,7.089c0.397,2.212,0.759,4.375,1.135,6.458
			c3.281-1.089,6.807-2.264,10.591-3.522C57.466,43.502,57.259,41.032,56.991,38.486z"/>
		<path fill="#231F20" d="M88.421,40.872l-5.283,1.759c0.531,1.522,1.062,3.094,1.605,4.697L88.421,40.872z"/>
		<path fill="#231F20" d="M80.261,55.382c-0.533-1.921-1.092-3.775-1.623-5.586c-0.514-1.77-1.023-3.491-1.525-5.165
			c-2.281,0.759-4.689,1.56-7.25,2.41c0.436,1.869,0.906,3.78,1.377,5.747c0.48,2.027,0.967,4.115,1.48,6.258
			c2.521,1.178,4.998,2.32,7.434,3.458c2.371,1.108,4.705,2.216,7.01,3.287l-0.309-7.159C84.71,57.569,82.519,56.476,80.261,55.382z
			"/>
		<path fill="#231F20" d="M63.733,63.414c-0.434-2.436-0.824-4.808-1.238-7.09c-0.396-2.211-0.758-4.373-1.133-6.456
			c-3.281,1.089-6.809,2.265-10.593,3.522c0.269,2.369,0.477,4.84,0.744,7.385c0.279,2.621,0.547,5.357,0.799,8.193
			c3.403,1.32,6.714,2.626,9.911,3.898c3.135,1.252,6.221,2.451,9.193,3.661c3.135-2.137,6.053-4.125,8.758-5.971
			c-2.586-1.144-5.264-2.287-7.953-3.47C69.472,65.877,66.61,64.667,63.733,63.414z"/>
	</g>
	<linearGradient id="SVGID_2_" gradientUnits="userSpaceOnUse" x1="19.0117" y1="75.5508" x2="60.7314" y2="75.5508">
		<stop  offset="0" style="stop-color:#AD2115"/>
		<stop  offset="1" style="stop-color:#ED3224"/>
	</linearGradient>
	<path fill-rule="evenodd" clip-rule="evenodd" fill="url(#SVGID_2_)" d="M60.731,83.828c-4.265,2.913-8.942,6.098-14.08,9.605
		c-4.304-1.243-8.691-2.615-13.14-3.954c-4.717-1.418-9.597-2.766-14.5-4.289c0.308-4.036,0.794-7.935,1.141-11.699
		c0.318-3.516,0.57-6.948,0.938-10.233c6.127-2.033,11.705-3.891,16.807-5.589c0.029,2.757,0.096,5.605,0.119,8.576
		c0.027,3.092,0.106,6.281,0.106,9.637c4.062,1.391,7.946,2.782,11.77,4.114C53.616,81.296,57.204,82.589,60.731,83.828z"/>
</g>
</svg>
