<?xml version="1.0" encoding="utf-8"?>
<!-- Generator: Adobe Illustrator 16.0.0, SVG Export Plug-In . SVG Version: 6.00 Build 0)  -->
<!DOCTYPE svg PUBLIC "-//W3C//DTD SVG 1.1//EN" "http://www.w3.org/Graphics/SVG/1.1/DTD/svg11.dtd">
<svg version="1.1" id="Layer_1" xmlns="http://www.w3.org/2000/svg" xmlns:xlink="http://www.w3.org/1999/xlink" x="0px" y="0px"
	 width="100px" height="100px" viewBox="0 0 100 100" enable-background="new 0 0 100 100" xml:space="preserve">
<g>
	<g>
		<g>
			<g>
				<g>
					<linearGradient id="SVGID_1_" gradientUnits="userSpaceOnUse" x1="49.4526" y1="22.5474" x2="49.4526" y2="64.9885">
						<stop  offset="0" style="stop-color:#F285A2"/>
						<stop  offset="0.8242" style="stop-color:#DC1F26"/>
						<stop  offset="1" style="stop-color:#B21E45"/>
					</linearGradient>
					<path fill="url(#SVGID_1_)" d="M58.222,65.106c-13.071,0.956-25.713-0.131-36.677-3.835
						c-5.345-2.004-10.823-4.266-13.991-9.618c-1.567-2.746-1.124-6.523,0.555-8.714c1.573-2.287,3.599-3.684,5.517-4.833
						c16.049-7.667,27.076-5.655,26.968-5.58c0.348,1.129-11.013,0.698-25.195,8.461c-3.287,2.042-6.387,5.583-4.347,8.794
						c2.003,3.336,6.935,5.703,11.893,7.31c10.211,3.217,22.407,4.175,34.891,3.247c6.226-0.555,12.301-1.57,17.803-3.379
						c5.286-1.722,10.984-4.616,12.156-8.348c1.116-3.553-3.75-7.146-7.772-8.999c-4.238-2.027-8.629-3.21-12.632-4.112
						c-16.224-3.283-26.791-2.085-26.797-2.975c-0.096-0.411,10.392-2.872,27.434-0.346c4.233,0.731,8.866,1.75,13.646,3.83
						c2.382,1.056,4.814,2.377,7.054,4.392c2.157,1.899,4.367,5.484,3.329,9.327c-2.619,7.208-9.246,9.435-14.926,11.668
						C71.146,63.436,64.772,64.52,58.222,65.106z"/>
				</g>
			</g>
			<g>
				<g>
					<linearGradient id="SVGID_2_" gradientUnits="userSpaceOnUse" x1="49.6333" y1="22.5469" x2="49.6333" y2="64.9877">
						<stop  offset="0" style="stop-color:#F285A2"/>
						<stop  offset="0.8242" style="stop-color:#DC1F26"/>
						<stop  offset="1" style="stop-color:#B21E45"/>
					</linearGradient>
					<path fill="url(#SVGID_2_)" d="M68.903,48.645c-5.707,11.808-12.95,22.195-21.658,29.833c-4.44,3.572-9.096,7.267-15.329,7.254
						c-3.092,0-6.215-2.206-7.252-4.783c-1.09-2.501-1.442-4.96-1.403-7.186c1.383-17.723,8.588-26.28,8.617-26.139
						c1.13,0.257-4.87,9.896-5.234,26.03c0.108,3.854,1.606,8.348,5.435,8.116c3.855,0.007,8.375-3.172,12.253-6.602
						c7.891-7.203,14.825-17.312,20.25-28.568c2.627-5.666,4.798-11.425,5.961-17.098c1.129-5.446,1.483-11.79-1.156-14.674
						c-2.525-2.758-8.046-0.343-11.653,2.241c-3.859,2.667-7.116,5.812-9.888,8.842c-10.954,12.405-15.19,22.145-15.968,21.711
						c-0.403-0.121,2.703-10.438,13.407-23.925c2.734-3.305,5.992-6.767,10.166-9.874c2.038-1.598,4.504-2.922,7.302-3.936
						c2.748-0.897,6.935-0.991,9.726,1.803c4.913,5.839,3.54,12.695,2.656,18.736C73.924,36.633,71.665,42.689,68.903,48.645z"/>
				</g>
			</g>
			<g>
				<g>
					<linearGradient id="SVGID_3_" gradientUnits="userSpaceOnUse" x1="49.2695" y1="22.5464" x2="49.2695" y2="64.9883">
						<stop  offset="0" style="stop-color:#F285A2"/>
						<stop  offset="0.8242" style="stop-color:#DC1F26"/>
						<stop  offset="1" style="stop-color:#B21E45"/>
					</linearGradient>
					<path fill="url(#SVGID_3_)" d="M38.626,64.086c-7.358-10.85-12.74-22.322-15-33.678c-0.877-5.63-1.753-11.512,1.375-16.903
						c1.549-2.68,5.023-4.274,7.772-3.885c2.709,0.305,5.014,1.228,6.922,2.377C54.36,22.05,58.167,32.569,58.032,32.526
						c-0.788,0.85-6.142-9.165-19.929-17.546c-3.391-1.833-8.038-2.783-9.749,0.646c-1.934,3.336-1.445,8.84-0.41,13.913
						c2.294,10.438,7.582,21.484,14.615,31.822c3.592,5.107,7.496,9.871,11.827,13.711c4.15,3.698,9.467,7.173,13.289,6.338
						c3.654-0.809,4.317-6.795,3.884-11.215c-0.384-4.672-1.478-9.068-2.715-12.984c-5.273-15.69-11.574-24.23-10.813-24.684
						c0.309-0.293,7.677,7.566,14.007,23.571c1.497,4.02,2.864,8.578,3.471,13.739c0.365,2.569,0.279,5.365-0.236,8.295
						c-0.601,2.831-2.617,6.508-6.429,7.526c-7.51,1.326-12.767-3.283-17.554-7.072C46.52,74.436,42.408,69.453,38.626,64.086z"/>
				</g>
			</g>
		</g>
	</g>
</g>
</svg>
