<?xml version="1.0" encoding="utf-8"?>
<!-- Generator: Adobe Illustrator 16.0.0, SVG Export Plug-In . SVG Version: 6.00 Build 0)  -->
<!DOCTYPE svg PUBLIC "-//W3C//DTD SVG 1.1//EN" "http://www.w3.org/Graphics/SVG/1.1/DTD/svg11.dtd">
<svg version="1.1" id="Layer_1" xmlns="http://www.w3.org/2000/svg" xmlns:xlink="http://www.w3.org/1999/xlink" x="0px" y="0px"
	 width="100px" height="100px" viewBox="0 0 100 100" enable-background="new 0 0 100 100" xml:space="preserve">
<g>
	<g>
		<g>
			<g>
				<g>
					<g>
						<g id="XMLID_6_">
							<g>
								<linearGradient id="SVGID_1_" gradientUnits="userSpaceOnUse" x1="50.3008" y1="91.916" x2="50.3125" y2="91.916">
									<stop  offset="0" style="stop-color:#F8D53F"/>
									<stop  offset="0.2741" style="stop-color:#F8D23D"/>
									<stop  offset="0.5042" style="stop-color:#F8C739"/>
									<stop  offset="0.7182" style="stop-color:#F7B631"/>
									<stop  offset="0.9215" style="stop-color:#F69E25"/>
									<stop  offset="1" style="stop-color:#F69220"/>
								</linearGradient>
								<polygon fill="url(#SVGID_1_)" points="50.313,91.906 50.301,91.925 50.301,91.906 								"/>
								<linearGradient id="SVGID_2_" gradientUnits="userSpaceOnUse" x1="50.6826" y1="91.8896" x2="50.7188" y2="91.8896">
									<stop  offset="0" style="stop-color:#F8D53F"/>
									<stop  offset="0.2741" style="stop-color:#F8D23D"/>
									<stop  offset="0.5042" style="stop-color:#F8C739"/>
									<stop  offset="0.7182" style="stop-color:#F7B631"/>
									<stop  offset="0.9215" style="stop-color:#F69E25"/>
									<stop  offset="1" style="stop-color:#F69220"/>
								</linearGradient>
								<polygon fill="url(#SVGID_2_)" points="50.683,91.873 50.706,91.873 50.719,91.906 50.683,91.906 								"/>
								<linearGradient id="SVGID_3_" gradientUnits="userSpaceOnUse" x1="50.7188" y1="91.8896" x2="50.75" y2="91.8896">
									<stop  offset="0" style="stop-color:#F8D53F"/>
									<stop  offset="0.2741" style="stop-color:#F8D23D"/>
									<stop  offset="0.5042" style="stop-color:#F8C739"/>
									<stop  offset="0.7182" style="stop-color:#F7B631"/>
									<stop  offset="0.9215" style="stop-color:#F69E25"/>
									<stop  offset="1" style="stop-color:#F69220"/>
								</linearGradient>
								<polygon fill="url(#SVGID_3_)" points="50.737,91.873 50.75,91.906 50.719,91.906 50.724,91.873 								"/>
								<linearGradient id="SVGID_4_" gradientUnits="userSpaceOnUse" x1="50.7373" y1="71.2227" x2="92.083" y2="71.2227">
									<stop  offset="0" style="stop-color:#C3CA32"/>
									<stop  offset="0.3875" style="stop-color:#C0C833"/>
									<stop  offset="0.7122" style="stop-color:#B5C036"/>
									<stop  offset="1" style="stop-color:#A5B43A"/>
								</linearGradient>
								<polygon fill="url(#SVGID_4_)" points="92.07,50.54 92.083,50.54 50.75,91.906 50.737,91.873 								"/>
								<polygon fill="#FFFFFF" points="9.292,50.54 9.324,50.54 9.306,50.54 								"/>
								<linearGradient id="SVGID_5_" gradientUnits="userSpaceOnUse" x1="9.3237" y1="50.5332" x2="9.3525" y2="50.5332">
									<stop  offset="0" style="stop-color:#F8D53F"/>
									<stop  offset="0.2741" style="stop-color:#F8D23D"/>
									<stop  offset="0.5042" style="stop-color:#F8C739"/>
									<stop  offset="0.7182" style="stop-color:#F7B631"/>
									<stop  offset="0.9215" style="stop-color:#F69E25"/>
									<stop  offset="1" style="stop-color:#F69220"/>
								</linearGradient>
								<polygon fill="url(#SVGID_5_)" points="9.353,50.54 9.324,50.54 9.343,50.527 								"/>
								<polygon fill="#515254" points="50.719,50.54 92.07,50.54 50.737,91.873 50.724,91.873 50.719,91.863 								"/>
								<linearGradient id="SVGID_6_" gradientUnits="userSpaceOnUse" x1="92.0703" y1="50.54" x2="92.0967" y2="50.54">
									<stop  offset="0" style="stop-color:#C3CA32"/>
									<stop  offset="0.3875" style="stop-color:#C0C833"/>
									<stop  offset="0.7122" style="stop-color:#B5C036"/>
									<stop  offset="1" style="stop-color:#A5B43A"/>
								</linearGradient>
								<polygon fill="url(#SVGID_6_)" points="92.07,50.54 92.097,50.54 92.083,50.54 								"/>
								<linearGradient id="SVGID_7_" gradientUnits="userSpaceOnUse" x1="92.0967" y1="50.54" x2="92.126" y2="50.54">
									<stop  offset="0" style="stop-color:#32A7DF"/>
									<stop  offset="1" style="stop-color:#2276B8"/>
								</linearGradient>
								<polygon fill="url(#SVGID_7_)" points="92.112,50.54 92.097,50.54 92.126,50.54 								"/>
								<linearGradient id="SVGID_8_" gradientUnits="userSpaceOnUse" x1="92.0967" y1="50.5332" x2="92.126" y2="50.5332">
									<stop  offset="0" style="stop-color:#EC2227"/>
									<stop  offset="1" style="stop-color:#BE202E"/>
								</linearGradient>
								<polygon fill="url(#SVGID_8_)" points="92.097,50.54 92.112,50.527 92.126,50.54 								"/>
								<polygon fill="#FFFFFF" points="92.097,50.54 92.07,50.54 92.07,50.527 								"/>
								<polygon fill="#FFFFFF" points="50.719,9.363 50.871,9.363 50.887,9.363 92.07,50.54 50.719,50.54 								"/>
								<linearGradient id="SVGID_9_" gradientUnits="userSpaceOnUse" x1="9.2925" y1="50.5332" x2="9.3237" y2="50.5332">
									<stop  offset="0" style="stop-color:#F8D53F"/>
									<stop  offset="0.2741" style="stop-color:#F8D23D"/>
									<stop  offset="0.5042" style="stop-color:#F8C739"/>
									<stop  offset="0.7182" style="stop-color:#F7B631"/>
									<stop  offset="0.9215" style="stop-color:#F69E25"/>
									<stop  offset="1" style="stop-color:#F69220"/>
								</linearGradient>
								<polygon fill="url(#SVGID_9_)" points="9.324,50.54 9.292,50.54 9.306,50.527 								"/>
								<polygon fill="#FFFFFF" points="9.353,50.54 9.343,50.527 9.343,50.527 50.502,9.363 50.517,9.363 50.517,9.363 								"/>
								<polygon fill="#85878A" points="50.543,9.363 50.719,9.363 50.719,50.54 9.353,50.54 50.517,9.363 								"/>
								<polygon fill="#FFFFFF" points="50.926,9.363 92.07,50.527 92.07,50.527 92.07,50.54 50.887,9.363 								"/>
								<linearGradient id="SVGID_10_" gradientUnits="userSpaceOnUse" x1="50.9258" y1="29.9453" x2="92.0967" y2="29.9453">
									<stop  offset="0" style="stop-color:#EC2227"/>
									<stop  offset="1" style="stop-color:#BE202E"/>
								</linearGradient>
								<polygon fill="url(#SVGID_10_)" points="91.669,9.363 92.097,9.363 92.097,50.512 92.07,50.527 50.926,9.363 								"/>
								
									<linearGradient id="SVGID_11_" gradientUnits="userSpaceOnUse" x1="167.2344" y1="-85.0459" x2="208.4023" y2="-85.0459" gradientTransform="matrix(0 1 1 0 115.5264 -115.5273)">
									<stop  offset="0" style="stop-color:#EC2227"/>
									<stop  offset="1" style="stop-color:#BE202E"/>
								</linearGradient>
								<polygon fill="url(#SVGID_11_)" points="9.902,92.451 9.902,92.875 51.046,92.875 51.06,92.858 9.902,51.707 								"/>
								<polygon fill="#FFFFFF" points="50.094,9.2 50.118,9.2 50.294,9.353 50.25,9.363 								"/>
								<linearGradient id="SVGID_12_" gradientUnits="userSpaceOnUse" x1="91.6689" y1="9.2813" x2="92.0967" y2="9.2813">
									<stop  offset="0" style="stop-color:#F8D53F"/>
									<stop  offset="0.2741" style="stop-color:#F8D23D"/>
									<stop  offset="0.5042" style="stop-color:#F8C739"/>
									<stop  offset="0.7182" style="stop-color:#F7B631"/>
									<stop  offset="0.9215" style="stop-color:#F69E25"/>
									<stop  offset="1" style="stop-color:#F69220"/>
								</linearGradient>
								<rect x="91.669" y="9.2" fill="url(#SVGID_12_)" width="0.428" height="0.163"/>
								<polygon fill="#FFFFFF" points="50.719,9.363 50.719,9.229 50.737,9.2 50.871,9.363 								"/>
								<polygon fill="#FFFFFF" points="50.301,9.353 50.313,9.363 50.301,9.363 								"/>
								<polygon fill="#FFFFFF" points="50.294,9.363 50.25,9.363 50.294,9.353 								"/>
								<polygon fill="#FFFFFF" points="50.301,9.363 50.294,9.363 50.294,9.353 50.301,9.334 50.301,9.353 50.301,9.353 								
									"/>
								<polygon fill="#FFFFFF" points="50.118,9.2 50.301,9.2 50.301,9.334 50.294,9.353 								"/>
								<polygon fill="#FFFFFF" points="50.469,9.2 50.301,9.353 50.301,9.334 50.301,9.2 								"/>
								<polygon fill="#FFFFFF" points="50.301,9.353 50.301,9.353 50.469,9.2 50.502,9.2 50.313,9.363 								"/>
								<linearGradient id="SVGID_13_" gradientUnits="userSpaceOnUse" x1="50.543" y1="9.2813" x2="50.7188" y2="9.2813">
									<stop  offset="0" style="stop-color:#32A7DF"/>
									<stop  offset="1" style="stop-color:#2276B8"/>
								</linearGradient>
								<polygon fill="url(#SVGID_13_)" points="50.706,9.2 50.719,9.229 50.719,9.363 50.543,9.363 50.683,9.2 								"/>
								<polygon fill="#FFFFFF" points="50.683,9.2 50.543,9.363 50.517,9.363 50.517,9.363 50.678,9.2 50.683,9.2 								"/>
								<polygon fill="#FFFFFF" points="50.871,9.363 50.737,9.2 50.737,9.2 50.737,9.2 50.75,9.2 50.926,9.363 50.887,9.363 
																	"/>
								<polygon fill="#FFFFFF" points="50.313,9.363 50.502,9.2 50.678,9.2 50.517,9.363 50.502,9.363 								"/>
								<linearGradient id="SVGID_14_" gradientUnits="userSpaceOnUse" x1="50.7236" y1="9.2002" x2="50.7373" y2="9.2002">
									<stop  offset="0" style="stop-color:#32A7DF"/>
									<stop  offset="1" style="stop-color:#2276B8"/>
								</linearGradient>
								<polygon fill="url(#SVGID_14_)" points="50.724,9.2 50.737,9.2 50.737,9.2 								"/>
								<linearGradient id="SVGID_15_" gradientUnits="userSpaceOnUse" x1="50.7061" y1="9.2148" x2="50.7373" y2="9.2148">
									<stop  offset="0" style="stop-color:#32A7DF"/>
									<stop  offset="1" style="stop-color:#2276B8"/>
								</linearGradient>
								<polygon fill="url(#SVGID_15_)" points="50.719,9.229 50.706,9.2 50.706,9.2 50.719,9.2 50.724,9.2 50.737,9.2 50.737,9.2 
																	"/>
								<linearGradient id="SVGID_16_" gradientUnits="userSpaceOnUse" x1="50.6826" y1="9.2002" x2="50.7061" y2="9.2002">
									<stop  offset="0" style="stop-color:#32A7DF"/>
									<stop  offset="1" style="stop-color:#2276B8"/>
								</linearGradient>
								<rect x="50.694" y="9.188" fill="url(#SVGID_16_)" width="0" height="0.023"/>
							</g>
						</g>
					</g>
				</g>
			</g>
		</g>
	</g>
</g>
</svg>
